<svg width="23" height="22" viewBox="0 0 23 22" fill="none" xmlns="http://www.w3.org/2000/svg">
<path d="M8.40186 9.97928L9.28698 10.8644M9.28698 10.8644L10.1721 11.7495M9.28698 10.8644L10.1721 9.97928M9.28698 10.8644L8.40186 11.7495" stroke="white" stroke-width="1.32768" stroke-linecap="round"/>
<path d="M3.97632 9.97928L4.86144 10.8644M4.86144 10.8644L5.74656 11.7495M4.86144 10.8644L5.74656 9.97928M4.86144 10.8644L3.97632 11.7495" stroke="white" stroke-width="1.32768" stroke-linecap="round"/>
<path d="M12.8276 9.97928L13.7128 10.8644M13.7128 10.8644L14.5979 11.7495M13.7128 10.8644L14.5979 9.97928M13.7128 10.8644L12.8276 11.7495" stroke="white" stroke-width="1.32768" stroke-linecap="round"/>
<path d="M17.2532 9.97928L18.1383 10.8644M18.1383 10.8644L19.0234 11.7495M18.1383 10.8644L19.0234 9.97928M18.1383 10.8644L17.2532 11.7495" stroke="white" stroke-width="1.32768" stroke-linecap="round"/>
<path d="M18.2566 14.4049C16.7671 16.8861 14.2497 18.4957 12.7442 19.2902C12.2068 19.5738 11.9382 19.7156 11.4997 19.7156C11.0612 19.7156 10.7926 19.5738 10.2552 19.2902C8.74969 18.4957 6.23237 16.8861 4.74288 14.4049M19.4657 7.32391C19.4646 6.03611 19.4448 5.36682 19.1081 4.92106C18.7505 4.44752 17.9417 4.21763 16.3242 3.75785C15.2192 3.44372 14.245 3.06527 13.4667 2.71977C12.4055 2.24871 11.875 2.01318 11.4997 2.01318C11.1244 2.01318 10.5939 2.24871 9.53272 2.71977C8.75441 3.06527 7.78029 3.44371 6.67521 3.75785C5.05774 4.21763 4.24899 4.44752 3.89131 4.92106C3.55461 5.36682 3.53485 6.03611 3.53369 7.32391" stroke="white" stroke-width="1.32768" stroke-linecap="round"/>
</svg>
