<svg width="14" height="14" viewBox="0 0 14 14" fill="none" xmlns="http://www.w3.org/2000/svg">
<path d="M13.5067 9.85628L9.23998 2.17628C8.66665 1.14295 7.87332 0.576279 6.99998 0.576279C6.12665 0.576279 5.33332 1.14295 4.75998 2.17628L0.493318 9.85628C-0.0466816 10.8363 -0.106682 11.7763 0.326652 12.5163C0.759985 13.2563 1.61332 13.6629 2.73332 13.6629H11.2667C12.3867 13.6629 13.24 13.2563 13.6733 12.5163C14.1067 11.7763 14.0467 10.8296 13.5067 9.85628ZM6.49998 5.24295C6.49998 4.96961 6.72665 4.74295 6.99998 4.74295C7.27332 4.74295 7.49998 4.96961 7.49998 5.24295V8.57628C7.49998 8.84961 7.27332 9.07628 6.99998 9.07628C6.72665 9.07628 6.49998 8.84961 6.49998 8.57628V5.24295ZM7.47332 11.0496C7.43998 11.0763 7.40665 11.1029 7.37332 11.1296C7.33332 11.1563 7.29332 11.1763 7.25332 11.1896C7.21332 11.2096 7.17332 11.2229 7.12665 11.2296C7.08665 11.2363 7.03998 11.2429 6.99998 11.2429C6.95998 11.2429 6.91332 11.2363 6.86665 11.2296C6.82665 11.2229 6.78665 11.2096 6.74665 11.1896C6.70665 11.1763 6.66665 11.1563 6.62665 11.1296C6.59332 11.1029 6.55998 11.0763 6.52665 11.0496C6.40665 10.9229 6.33332 10.7496 6.33332 10.5763C6.33332 10.4029 6.40665 10.2296 6.52665 10.1029C6.55998 10.0763 6.59332 10.0496 6.62665 10.0229C6.66665 9.99628 6.70665 9.97628 6.74665 9.96295C6.78665 9.94295 6.82665 9.92961 6.86665 9.92295C6.95332 9.90295 7.04665 9.90295 7.12665 9.92295C7.17332 9.92961 7.21332 9.94295 7.25332 9.96295C7.29332 9.97628 7.33332 9.99628 7.37332 10.0229C7.40665 10.0496 7.43998 10.0763 7.47332 10.1029C7.59332 10.2296 7.66665 10.4029 7.66665 10.5763C7.66665 10.7496 7.59332 10.9229 7.47332 11.0496Z" fill="#0ABA2A"/>
</svg>
